<mxfile host="app.diagrams.net" modified="2024-06-06T12:30:44.113Z" agent="Mozilla/5.0 (Windows NT 10.0; Win64; x64) AppleWebKit/537.36 (KHTML, like Gecko) Chrome/125.0.0.0 Safari/537.36" etag="BhZy0moF3Tyix7WZX3mF" version="24.4.15" type="github">
  <diagram id="C5RBs43oDa-KdzZeNtuy" name="Page-1">
    <mxGraphModel dx="682" dy="364" grid="1" gridSize="10" guides="1" tooltips="1" connect="1" arrows="1" fold="1" page="1" pageScale="1" pageWidth="827" pageHeight="1169" math="0" shadow="0">
      <root>
        <mxCell id="WIyWlLk6GJQsqaUBKTNV-0" />
        <mxCell id="WIyWlLk6GJQsqaUBKTNV-1" parent="WIyWlLk6GJQsqaUBKTNV-0" />
        <mxCell id="S5OCLIkHaagbaguQuqcc-9" style="edgeStyle=orthogonalEdgeStyle;rounded=0;orthogonalLoop=1;jettySize=auto;html=1;entryX=0.5;entryY=0;entryDx=0;entryDy=0;" edge="1" parent="WIyWlLk6GJQsqaUBKTNV-1" source="S5OCLIkHaagbaguQuqcc-1" target="S5OCLIkHaagbaguQuqcc-3">
          <mxGeometry relative="1" as="geometry" />
        </mxCell>
        <mxCell id="S5OCLIkHaagbaguQuqcc-1" value="시작" style="strokeWidth=2;html=1;shape=mxgraph.flowchart.start_1;whiteSpace=wrap;" vertex="1" parent="WIyWlLk6GJQsqaUBKTNV-1">
          <mxGeometry x="364" y="30" width="100" height="60" as="geometry" />
        </mxCell>
        <mxCell id="S5OCLIkHaagbaguQuqcc-2" value="" style="rounded=1;whiteSpace=wrap;html=1;" vertex="1" parent="WIyWlLk6GJQsqaUBKTNV-1">
          <mxGeometry x="354" y="390" width="120" height="60" as="geometry" />
        </mxCell>
        <mxCell id="S5OCLIkHaagbaguQuqcc-5" style="edgeStyle=orthogonalEdgeStyle;rounded=0;orthogonalLoop=1;jettySize=auto;html=1;" edge="1" parent="WIyWlLk6GJQsqaUBKTNV-1" source="S5OCLIkHaagbaguQuqcc-3" target="S5OCLIkHaagbaguQuqcc-4">
          <mxGeometry relative="1" as="geometry" />
        </mxCell>
        <mxCell id="S5OCLIkHaagbaguQuqcc-7" style="edgeStyle=orthogonalEdgeStyle;rounded=0;orthogonalLoop=1;jettySize=auto;html=1;entryX=0.5;entryY=0;entryDx=0;entryDy=0;" edge="1" parent="WIyWlLk6GJQsqaUBKTNV-1" source="S5OCLIkHaagbaguQuqcc-3" target="S5OCLIkHaagbaguQuqcc-6">
          <mxGeometry relative="1" as="geometry" />
        </mxCell>
        <mxCell id="S5OCLIkHaagbaguQuqcc-3" value="연결되어 있는&amp;nbsp;&lt;div&gt;소셜 계정이 1개 이상?&lt;/div&gt;" style="rhombus;whiteSpace=wrap;html=1;" vertex="1" parent="WIyWlLk6GJQsqaUBKTNV-1">
          <mxGeometry x="317" y="140" width="194" height="80" as="geometry" />
        </mxCell>
        <mxCell id="S5OCLIkHaagbaguQuqcc-10" style="edgeStyle=orthogonalEdgeStyle;rounded=0;orthogonalLoop=1;jettySize=auto;html=1;endArrow=open;endFill=0;" edge="1" parent="WIyWlLk6GJQsqaUBKTNV-1">
          <mxGeometry relative="1" as="geometry">
            <mxPoint x="414" y="110" as="targetPoint" />
            <mxPoint x="613.9999999999998" y="150" as="sourcePoint" />
            <Array as="points">
              <mxPoint x="614" y="110" />
            </Array>
          </mxGeometry>
        </mxCell>
        <mxCell id="S5OCLIkHaagbaguQuqcc-4" value="사용자에게 소셜 계정 연동 요청" style="rounded=1;whiteSpace=wrap;html=1;" vertex="1" parent="WIyWlLk6GJQsqaUBKTNV-1">
          <mxGeometry x="550" y="150" width="120" height="60" as="geometry" />
        </mxCell>
        <mxCell id="S5OCLIkHaagbaguQuqcc-6" value="각 플랫폼에서&amp;nbsp;&lt;div&gt;데이터 가져오기&lt;/div&gt;" style="rounded=1;whiteSpace=wrap;html=1;" vertex="1" parent="WIyWlLk6GJQsqaUBKTNV-1">
          <mxGeometry x="354" y="270" width="120" height="60" as="geometry" />
        </mxCell>
        <mxCell id="S5OCLIkHaagbaguQuqcc-11" value="No" style="text;html=1;align=center;verticalAlign=middle;whiteSpace=wrap;rounded=0;" vertex="1" parent="WIyWlLk6GJQsqaUBKTNV-1">
          <mxGeometry x="490" y="150" width="60" height="30" as="geometry" />
        </mxCell>
        <mxCell id="S5OCLIkHaagbaguQuqcc-12" value="YES" style="text;html=1;align=center;verticalAlign=middle;whiteSpace=wrap;rounded=0;" vertex="1" parent="WIyWlLk6GJQsqaUBKTNV-1">
          <mxGeometry x="404" y="230" width="60" height="30" as="geometry" />
        </mxCell>
      </root>
    </mxGraphModel>
  </diagram>
</mxfile>
